# xmcd
# 
# Track frame offsets:
#     150
#     20053
#     37646
#     48683
# 
# Disc length: 901
# 
# Revision: 0
# Processed by: cddbd v1.5.2PL0 Copyright (c) Steve Scherf et al.
# Submitted via: fre:ac v1.0.27
# 
DISCID=2a038304
DTITLE=Loner - Road Songs
DYEAR=2004
DGENRE=AltCountry
TTITLE0=Another Line. . .in a Crazy World
TTITLE1=Road Song
TTITLE2=Renay's Song
TTITLE3=French Movie
EXTD=
EXTT0=
EXTT1=
EXTT2=
EXTT3=
PLAYORDER=
